<?xml version="1.0" encoding="utf-8"?>
<svg id="master-artboard" viewBox="0 0 160.11180114746094 139.64122009277344" version="1.1" xmlns="http://www.w3.org/2000/svg" x="0px" y="0px" enable-background="new 0 0 1400 980" width="160.11180114746094px" height="139.64122009277344px"><rect id="ee-background" x="0" y="0" width="160.11180114746094" height="139.64122009277344" style="fill: rgb(255, 231, 214); fill-opacity: 0; pointer-events: none;"/>
<path fill="#deb887" d="M662.8,427.7H412.4c-6.8,0-12.4-5.5-12.4-12.4c0-6.8,5.5-12.4,12.4-12.4h250.5c6.8,0,12.4,5.5,12.4,12.4&#10;&#9;&#9;&#9;C675.2,422.2,669.6,427.7,662.8,427.7z M412.4,408.7c-3.7,0-6.7,3-6.7,6.7c0,3.7,3,6.7,6.7,6.7h250.5c3.7,0,6.7-3,6.7-6.7&#10;&#9;&#9;&#9;c0-3.7-3-6.7-6.7-6.7H412.4z" transform="matrix(0.5236981511116028, 0, 0, 0.5236981511116028, -202.40010833740234, -115.99388694763184)"/><path fill="#deb887" d="M624.7,456.9H450.5c-17.6,0-32-14.4-32-32c0-1.6,1.3-2.8,2.8-2.8h232.5c1.6,0,2.8,1.3,2.8,2.8&#10;&#9;&#9;&#9;C656.7,442.5,642.3,456.9,624.7,456.9z M424.3,427.7c1.4,13.2,12.6,23.5,26.2,23.5h174.2c13.6,0,24.8-10.3,26.2-23.5H424.3z" transform="matrix(0.5236981511116028, 0, 0, 0.5236981511116028, -202.40010833740234, -115.99388694763184)"/><path fill="#deb887" d="M622.2,426.2H453c-5.1,0-9.2-4.1-9.2-9.2v-3.3c0-5.1,4.1-9.2,9.2-9.2h169.3c5.1,0,9.2,4.1,9.2,9.2v3.3&#10;&#9;&#9;&#9;C631.4,422.1,627.3,426.2,622.2,426.2z M453,407.1c-3.6,0-6.6,3-6.6,6.6v3.3c0,3.6,3,6.6,6.6,6.6h169.3c3.6,0,6.6-3,6.6-6.6v-3.3&#10;&#9;&#9;&#9;c0-3.6-3-6.6-6.6-6.6H453z" transform="matrix(0.5236981511116028, 0, 0, 0.5236981511116028, -202.40010833740234, -115.99388694763184)"/><path fill="#deb887" d="M593.3,455.4H481.9c-14.1,0-25.5-11.4-25.5-25.5v-5c0-0.7,0.6-1.3,1.3-1.3h159.7c0.7,0,1.3,0.6,1.3,1.3v5&#10;&#9;&#9;&#9;C618.7,443.9,607.3,455.4,593.3,455.4z M459.1,426.2v3.7c0,12.6,10.2,22.8,22.8,22.8h111.3c12.6,0,22.8-10.2,22.8-22.8v-3.7H459.1&#10;&#9;&#9;&#9;z" transform="matrix(0.5236981511116028, 0, 0, 0.5236981511116028, -202.40010833740234, -115.99388694763184)"/><path fill="#deb887" d="M538.2,407.1h-104c-0.4,0-0.8-0.2-1-0.5c-0.3-0.3-0.4-0.7-0.3-1.1c4.8-25.6,27.2-44.1,53.3-44.1&#10;&#9;&#9;&#9;c26.1,0,48.5,18.6,53.3,44.1c0.1,0.4,0,0.8-0.3,1.1C539,407,538.6,407.1,538.2,407.1z M435.8,404.5h100.8&#10;&#9;&#9;&#9;c-5.2-23.5-26.1-40.4-50.4-40.4C462,364.1,441,381,435.8,404.5z" transform="matrix(0.5236981511116028, 0, 0, 0.5236981511116028, -202.40010833740234, -115.99388694763184)"/><path fill="#deb887" d="M528.5,407.1H444c-0.4,0-0.8-0.2-1-0.5c-0.3-0.3-0.3-0.7-0.3-1.1c2.2-9.7,7.8-18.4,15.5-24.7&#10;&#9;&#9;&#9;c7.9-6.4,17.8-9.8,28-9.8c10.2,0,20.1,3.5,28,9.8c7.8,6.3,13.3,15,15.5,24.7c0.1,0.4,0,0.8-0.3,1.1&#10;&#9;&#9;&#9;C529.3,407,528.9,407.1,528.5,407.1z M445.7,404.5h81.1c-5-18.3-21.4-30.9-40.5-30.9S450.7,386.2,445.7,404.5z" transform="matrix(0.5236981511116028, 0, 0, 0.5236981511116028, -202.40010833740234, -115.99388694763184)"/><path fill="#deb887" d="M519.1,407.1h-65.8c-0.4,0-0.8-0.2-1.1-0.5c-0.2-0.3-0.3-0.8-0.2-1.2c4.5-15,18.5-25.4,34.1-25.4&#10;&#9;&#9;&#9;c15.6,0,29.7,10.4,34.1,25.4c0.1,0.4,0,0.8-0.2,1.2C519.9,406.9,519.5,407.1,519.1,407.1z M455.2,404.5h62.1&#10;&#9;&#9;&#9;c-4.7-12.9-17.2-21.8-31.1-21.8C472.4,382.7,459.8,391.6,455.2,404.5z" transform="matrix(0.5236981511116028, 0, 0, 0.5236981511116028, -202.40010833740234, -115.99388694763184)"/><path fill="#deb887" d="M510.8,407.1h-49.2c-0.4,0-0.8-0.2-1.1-0.6c-0.2-0.4-0.3-0.8-0.1-1.2c4.3-10.6,14.4-17.5,25.8-17.5&#10;&#9;&#9;&#9;c11.4,0,21.6,6.9,25.8,17.5c0.2,0.4,0.1,0.9-0.1,1.2C511.7,406.9,511.3,407.1,510.8,407.1z M463.7,404.5h45.1&#10;&#9;&#9;&#9;c-4.2-8.6-12.9-14-22.6-14C476.6,390.5,467.9,395.9,463.7,404.5z" transform="matrix(0.5236981511116028, 0, 0, 0.5236981511116028, -202.40010833740234, -115.99388694763184)"/><path fill="#deb887" d="M503.4,407.1H469c-0.5,0-0.9-0.3-1.1-0.7c-0.2-0.4-0.2-0.9,0-1.3c3.8-6.6,10.8-10.6,18.4-10.6&#10;&#9;&#9;&#9;s14.6,4.1,18.4,10.6c0.2,0.4,0.2,0.9,0,1.3C504.3,406.9,503.9,407.1,503.4,407.1z M471.5,404.5H501c-3.5-4.6-8.9-7.3-14.7-7.3&#10;&#9;&#9;&#9;C480.4,397.2,475,399.9,471.5,404.5z" transform="matrix(0.5236981511116028, 0, 0, 0.5236981511116028, -202.40010833740234, -115.99388694763184)"/><g transform="matrix(0.5236981511116028, 0, 0, 0.5236981511116028, -202.40010833740234, -115.99388694763184)">
			<path fill="#deb887" d="M548.4,408.7H424.1c-0.8,0-1.6-0.4-2.2-1c-0.5-0.6-0.8-1.5-0.6-2.3c2.4-15.3,10.2-29.3,22-39.5&#10;&#9;&#9;&#9;&#9;c11.9-10.3,27.2-15.9,42.9-15.9c15.8,0,31,5.7,42.9,15.9c11.8,10.2,19.6,24.2,22,39.5c0.1,0.8-0.1,1.7-0.6,2.3&#10;&#9;&#9;&#9;&#9;S549.2,408.7,548.4,408.7z M427.5,403H545c-5.9-27.6-30.1-47.4-58.7-47.4C457.6,355.6,433.4,375.3,427.5,403z"/>
		</g><path fill="#deb887" d="M651.1,408.7H548.4c-1.4,0-2.6-1-2.8-2.4c-1.4-9-5-17.8-10.3-25.3c-0.7-1-0.7-2.3,0-3.3&#10;&#9;&#9;&#9;&#9;c12.3-17.4,32.4-27.8,53.7-27.8c15.8,0,31,5.7,42.9,15.9c11.8,10.2,19.6,24.2,22,39.5c0.1,0.8-0.1,1.7-0.6,2.3&#10;&#9;&#9;&#9;&#9;C652.7,408.3,651.9,408.7,651.1,408.7z M550.7,403h96.9c-5.9-27.6-30.1-47.4-58.7-47.4c-18.8,0-36.6,8.9-47.9,23.8&#10;&#9;&#9;&#9;&#9;C545.8,386.6,549.1,394.6,550.7,403z" transform="matrix(0.5236981511116028, 0, 0, 0.5236981511116028, -202.40010833740234, -115.99388694763184)"/><path fill="#deb887" d="M641,407.1h-92.6c-0.6,0-1.2-0.5-1.3-1.1c-0.9-5.7-2.6-11.2-5-16.4c-0.2-0.4-0.2-0.9,0.1-1.2&#10;&#9;&#9;&#9;c9.7-16.6,27.7-27,46.9-27c26.1,0,48.5,18.6,53.3,44.1c0.1,0.4,0,0.8-0.3,1.1C641.7,407,641.4,407.1,641,407.1z M549.5,404.5h89.9&#10;&#9;&#9;&#9;c-5.2-23.5-26.1-40.4-50.4-40.4c-18.1,0-34.9,9.6-44.2,25.1C547,394,548.6,399.2,549.5,404.5z" transform="matrix(0.5236981511116028, 0, 0, 0.5236981511116028, -202.40010833740234, -115.99388694763184)"/><path fill="#deb887" d="M631.2,407.1h-84.5c-0.4,0-0.8-0.2-1-0.5c-0.3-0.3-0.3-0.7-0.3-1.1c2.2-9.7,7.8-18.4,15.5-24.7&#10;&#9;&#9;&#9;c7.9-6.4,17.8-9.8,28-9.8c10.2,0,20.1,3.5,28,9.8c7.8,6.3,13.3,15,15.5,24.7c0.1,0.4,0,0.8-0.3,1.1&#10;&#9;&#9;&#9;C632,407,631.6,407.1,631.2,407.1z M548.4,404.5h81.1c-5-18.3-21.4-30.9-40.5-30.9C569.9,373.6,553.4,386.2,548.4,404.5z" transform="matrix(0.5236981511116028, 0, 0, 0.5236981511116028, -202.40010833740234, -115.99388694763184)"/><path fill="#deb887" d="M621.8,407.1h-65.8c-0.4,0-0.8-0.2-1.1-0.5c-0.2-0.3-0.3-0.8-0.2-1.2c4.5-15,18.5-25.4,34.1-25.4&#10;&#9;&#9;&#9;c15.6,0,29.7,10.4,34.1,25.4c0.1,0.4,0,0.8-0.2,1.2C622.7,406.9,622.3,407.1,621.8,407.1z M557.9,404.5H620&#10;&#9;&#9;&#9;c-4.7-12.9-17.2-21.8-31.1-21.8C575.1,382.7,562.6,391.6,557.9,404.5z" transform="matrix(0.5236981511116028, 0, 0, 0.5236981511116028, -202.40010833740234, -115.99388694763184)"/><path fill="#deb887" d="M613.6,407.1h-49.2c-0.4,0-0.8-0.2-1.1-0.6c-0.2-0.4-0.3-0.8-0.1-1.2c4.3-10.6,14.4-17.5,25.8-17.5&#10;&#9;&#9;&#9;c11.4,0,21.6,6.9,25.8,17.5c0.2,0.4,0.1,0.9-0.1,1.2C614.4,406.9,614,407.1,613.6,407.1z M566.4,404.5h45.1&#10;&#9;&#9;&#9;c-4.2-8.6-12.9-14-22.6-14C579.3,390.5,570.6,395.9,566.4,404.5z" transform="matrix(0.5236981511116028, 0, 0, 0.5236981511116028, -202.40010833740234, -115.99388694763184)"/><path fill="#deb887" d="M606.2,407.1h-34.4c-0.5,0-0.9-0.3-1.1-0.7c-0.2-0.4-0.2-0.9,0-1.3c3.8-6.6,10.8-10.6,18.4-10.6&#10;&#9;&#9;&#9;s14.6,4.1,18.4,10.6c0.2,0.4,0.2,0.9,0,1.3C607.1,406.9,606.6,407.1,606.2,407.1z M574.2,404.5h29.5c-3.5-4.6-8.9-7.3-14.7-7.3&#10;&#9;&#9;&#9;C583.2,397.2,577.7,399.9,574.2,404.5z" transform="matrix(0.5236981511116028, 0, 0, 0.5236981511116028, -202.40010833740234, -115.99388694763184)"/><path fill="#deb887" d="M541.1,377.8h-6.9c-0.8,0-1.6-0.4-2.2-1c-11.4-13.4-28.1-21.1-45.8-21.1c-1.1,0-2.2,0-3.3,0.1&#10;&#9;&#9;&#9;c-1,0.1-2-0.5-2.6-1.4c-0.5-0.9-0.6-2,0-2.9c5.7-9.7,13.9-17.8,23.6-23.5c10-5.8,21.5-8.9,33.1-8.9c11.6,0,23.1,3.1,33.1,8.9&#10;&#9;&#9;&#9;c9.6,5.6,17.7,13.6,23.4,23.2c0.3,0.5,0.5,1,0.5,1.6c0,1.6-1.3,2.8-2.8,2.8c0,0,0,0,0,0c0,0-0.1,0-0.1,0c-0.8,0-1.5,0-2.1,0&#10;&#9;&#9;&#9;c-17.6,0-34.3,7.7-45.8,21.1C542.7,377.4,541.9,377.8,541.1,377.8z M535.4,372.1h4.3c11.8-13.3,28.5-21.3,46.2-22.1&#10;&#9;&#9;&#9;c-11.2-15.7-29.5-25.3-49-25.3c-19.4,0-37.7,9.6-48.9,25.2C506.2,350.5,523.3,358.4,535.4,372.1z" transform="matrix(0.5236981511116028, 0, 0, 0.5236981511116028, -202.40010833740234, -115.99388694763184)"/><path fill="#deb887" d="M541.1,376.2h-6.9c-0.4,0-0.8-0.2-1-0.5c-9.9-11.7-23.7-19.2-38.9-21.2c-0.5-0.1-0.9-0.4-1-0.8&#10;&#9;&#9;&#9;c-0.2-0.4-0.1-0.9,0.2-1.3c10.2-13.8,26.5-22,43.6-22c17.2,0,33.5,8.3,43.7,22.1c0.3,0.4,0.3,0.9,0.2,1.3s-0.6,0.7-1,0.8&#10;&#9;&#9;&#9;c-14.7,2.2-28.1,9.6-37.8,21C541.8,376.1,541.4,376.2,541.1,376.2z M534.7,373.6h5.7c9.6-11,22.5-18.4,36.8-21.1&#10;&#9;&#9;&#9;c-9.8-12.2-24.6-19.3-40.3-19.3c-15.8,0-30.3,7-40.1,19.2C511.6,354.8,524.9,362.3,534.7,373.6z" transform="matrix(0.5236981511116028, 0, 0, 0.5236981511116028, -202.40010833740234, -115.99388694763184)"/><path fill="#deb887" d="M541.1,376.2h-6.9c-0.4,0-0.8-0.2-1-0.5c-7.6-8.9-17.5-15.5-28.6-18.9c-0.4-0.1-0.8-0.5-0.9-0.9&#10;&#9;&#9;&#9;c-0.1-0.4,0-0.9,0.3-1.2c8.5-9.3,20.5-14.6,33-14.6c12.7,0,24.9,5.4,33.3,14.9c0.3,0.3,0.4,0.8,0.3,1.2s-0.4,0.8-0.9,0.9&#10;&#9;&#9;&#9;c-10.7,3.5-20.3,10-27.7,18.6C541.8,376.1,541.4,376.2,541.1,376.2z M534.7,373.6h5.7c7.2-8.3,16.3-14.5,26.5-18.3&#10;&#9;&#9;&#9;c-7.9-8-18.7-12.6-30-12.6c-11.1,0-21.8,4.4-29.7,12.3C517.9,358.7,527.3,365.1,534.7,373.6z" transform="matrix(0.5236981511116028, 0, 0, 0.5236981511116028, -202.40010833740234, -115.99388694763184)"/><path fill="#deb887" d="M541.1,376.2h-6.9c-0.4,0-0.8-0.2-1-0.5c-5.5-6.4-12.1-11.6-19.7-15.3c-0.4-0.2-0.7-0.6-0.7-1&#10;&#9;&#9;&#9;c-0.1-0.4,0.1-0.9,0.4-1.2c6.5-5.9,15-9.1,23.8-9.1c9,0,17.7,3.4,24.3,9.6c0.3,0.3,0.5,0.7,0.4,1.1c-0.1,0.4-0.3,0.8-0.7,1&#10;&#9;&#9;&#9;c-7.2,3.7-13.6,8.7-18.9,14.9C541.8,376.1,541.4,376.2,541.1,376.2z M534.7,373.6h5.7c5-5.8,10.9-10.5,17.6-14.2&#10;&#9;&#9;&#9;c-5.9-4.9-13.3-7.6-21.1-7.6c-7.5,0-14.7,2.5-20.6,7.2C523.4,362.7,529.5,367.6,534.7,373.6z" transform="matrix(0.5236981511116028, 0, 0, 0.5236981511116028, -202.40010833740234, -115.99388694763184)"/><path fill="#deb887" d="M541.1,376.2h-6.9c-0.4,0-0.8-0.2-1-0.5c-3.7-4.3-7.9-8.1-12.6-11.2c-0.4-0.2-0.6-0.6-0.6-1.1&#10;&#9;&#9;&#9;c0-0.4,0.2-0.8,0.5-1.1c4.8-3.5,10.5-5.4,16.5-5.4c6.3,0,12.2,2,17.1,5.9c0.3,0.3,0.5,0.7,0.5,1.1c0,0.4-0.2,0.8-0.6,1&#10;&#9;&#9;&#9;c-4.4,3.1-8.4,6.7-11.9,10.8C541.8,376.1,541.4,376.2,541.1,376.2z M534.7,373.6h5.7c3.1-3.6,6.7-6.9,10.5-9.7&#10;&#9;&#9;&#9;c-4.1-2.8-9-4.3-14-4.3c-4.8,0-9.4,1.3-13.4,3.8C527.7,366.4,531.4,369.8,534.7,373.6z" transform="matrix(0.5236981511116028, 0, 0, 0.5236981511116028, -202.40010833740234, -115.99388694763184)"/><path fill="#deb887" d="M541.1,376.2h-6.9c-0.4,0-0.8-0.2-1-0.5c-2.2-2.5-4.5-4.9-7.1-7.1c-0.3-0.3-0.5-0.7-0.5-1.1&#10;&#9;&#9;&#9;c0-0.4,0.3-0.8,0.6-1c3.2-1.9,7-2.9,10.7-2.9c4.1,0,8.1,1.2,11.5,3.4c0.3,0.2,0.6,0.6,0.6,1s-0.1,0.8-0.5,1.1&#10;&#9;&#9;&#9;c-2.4,2-4.6,4.3-6.6,6.6C541.8,376.1,541.4,376.2,541.1,376.2z M534.7,373.6h5.7c1.6-1.8,3.3-3.6,5.1-5.2&#10;&#9;&#9;&#9;c-2.6-1.4-5.6-2.1-8.6-2.1c-2.7,0-5.3,0.6-7.8,1.7C531.2,369.7,533,371.6,534.7,373.6z" transform="matrix(0.5236981511116028, 0, 0, 0.5236981511116028, -202.40010833740234, -115.99388694763184)"/>
<g transform="matrix(0.354836642742157, 0, 0, 0.354836642742157, -111.61775970458984, -62.650442123413086)">
			<path fill="#deb887" d="M531.7,305c-0.7,0-1.3-0.2-1.9-0.7c-1.2-1-1.3-2.8-0.3-4c0.2-0.2,15.6-18.2,15.6-31.6&#10;&#9;&#9;&#9;&#9;c0-10.7-3.3-15.3-10-24.5c-1.7-2.4-3.7-5.1-5.8-8.2c-11.1-16.4-0.6-35.6-0.1-36.4c0.8-1.4,2.5-1.9,3.9-1.1&#10;&#9;&#9;&#9;&#9;c1.4,0.8,1.9,2.5,1.1,3.9c-0.1,0.2-9.2,17-0.1,30.4c2.1,3.1,4,5.7,5.7,8.1c6.9,9.5,11.1,15.3,11.1,27.8c0,15.5-16.3,34.5-17,35.3&#10;&#9;&#9;&#9;&#9;C533.3,304.6,532.5,305,531.7,305z"/>
		</g><g transform="matrix(0.354836642742157, 0, 0, 0.354836642742157, -111.61775970458984, -62.650442123413086)">
				<path fill="#deb887" d="M484.3,315.9c-0.7,0-1.3-0.2-1.9-0.7c-1.2-1-1.3-2.8-0.3-4c0.2-0.2,15.6-18.2,15.6-31.6&#10;&#9;&#9;&#9;&#9;&#9;c0-10.7-3.3-15.3-10-24.5c-1.7-2.4-3.7-5.1-5.8-8.2c-11.1-16.4-0.6-35.6-0.1-36.4c0.8-1.4,2.5-1.9,3.9-1.1&#10;&#9;&#9;&#9;&#9;&#9;c1.4,0.8,1.9,2.5,1.1,3.9c-0.1,0.2-9.2,17-0.1,30.4c2.1,3.1,4,5.7,5.7,8.1c6.9,9.5,11.1,15.3,11.1,27.8&#10;&#9;&#9;&#9;&#9;&#9;c0,15.5-16.3,34.5-17,35.3C485.8,315.6,485,315.9,484.3,315.9z"/>
			</g><path fill="#deb887" d="M579.2,315.9c-0.7,0-1.3-0.2-1.9-0.7c-1.2-1-1.3-2.8-0.3-4c0.2-0.2,15.6-18.2,15.6-31.6&#10;&#9;&#9;&#9;&#9;&#9;c0-10.7-3.3-15.3-10-24.5c-1.7-2.4-3.7-5.1-5.8-8.2c-11.1-16.4-0.6-35.6-0.1-36.4c0.8-1.4,2.5-1.9,3.9-1.1&#10;&#9;&#9;&#9;&#9;&#9;c1.4,0.8,1.9,2.5,1.1,3.9c-0.1,0.2-9.2,17-0.1,30.4c2.1,3.1,4,5.7,5.7,8.1c6.9,9.5,11.1,15.3,11.1,27.8&#10;&#9;&#9;&#9;&#9;&#9;c0,15.5-16.3,34.5-17,35.3C580.8,315.6,580,315.9,579.2,315.9z" transform="matrix(0.354836642742157, 0, 0, 0.354836642742157, -111.61775970458984, -62.650442123413086)"/></svg>