<svg width="1280" height="960" xmlns="http://www.w3.org/2000/svg">
 <defs>
  <style>.cls-1{fill:#28382B;}.cls-2{fill:#e9eef1;}.cls-3{fill:#fd8a29;}.cls-4{fill:#ccd1d3;}.cls-5{fill:#f2f7f9;}.cls-6{fill:#dbe0e2;}.cls-7{fill:#f1ab90;}.cls-8{fill:#dadfe2;}.cls-9{fill:#dde2e5;}.cls-10{fill:#ec772a;}.cls-11{fill:#c8601a;}.cls-12{fill:#d8671d;}.cls-13{fill:#e77b2a;}</style>
 </defs>
 <title>rock-paper-scissors-flat-icons</title>
 <g>
  <title>Layer 1</title>
  <g id="Background">
   <rect class="cls-1" width="2400" height="1350" id="svg_1" y="-3" x="-3"/>
  </g>
  <g id="scissor">
   <path class="cls-2" d="m1937.2,714.53c-4.93,13.61 49.44,-47.64 35.34,-40.34l-241.1,-281.28a108.16,108.16 0 0 0 16.27,132.14l189.49,189.48z" id="svg_2"/>
   <path class="cls-3" d="m1927.19,742.5a73.54,73.54 0 1 1 73.54,73.5a73.64,73.64 0 0 1 -73.54,-73.52m32.56,0a41,41 0 1 0 41,-41a41,41 0 0 0 -41,41" id="svg_3"/>
   <polygon class="cls-4" points="1912.08 603.67 1871.47 648.8 1910.2 687.55 1949.92 647.82 1912.08 603.67" id="svg_4"/>
   <path class="cls-5" d="m2033.81,525.05a108.16,108.16 0 0 0 16.27,-132.14l-241.08,281.28c-14.1,-7.3 40.25,53.95 35.34,40.34l189.47,-189.48z" id="svg_5"/>
   <path class="cls-3" d="m1780.78,669a73.61,73.61 0 0 0 -73.51,73.56c0,1.39 0,2.74 0.12,4.09a73.53,73.53 0 0 0 146.83,0c0.08,-1.35 0.12,-2.7 0.12,-4.09a73.63,73.63 0 0 0 -73.56,-73.56zm40.78,77.57l0,0.17a41,41 0 0 1 -81.55,0l0,-0.17c-0.13,-1.31 -0.21,-2.66 -0.21,-4a41,41 0 0 1 82,0c-0.04,1.29 -0.12,2.64 -0.24,3.95l0,0.05z" id="svg_6"/>
   <path class="cls-6" d="m1890.76,602.92a18.33,18.33 0 1 1 -18.33,18.33a18.32,18.32 0 0 1 18.33,-18.33" id="svg_7"/>
  </g>
  <ellipse class="cls-7" cx="1890.76" cy="1021.51" rx="227.99" ry="47.24" id="svg_8"/>
  <ellipse class="cls-7" cx="509.24" cy="1021.51" rx="227.99" ry="47.24" id="svg_24"/>
  <g id="svg_9">
   <path class="cls-5" d="m775.73451,272.15401l-184.74,0l-139.65,139.67l139.65,-28.76a28.7,28.7 0 0 1 -8.37,20.26l-101.17,101.52a14.47,14.47 0 0 1 9.54,-3.6c7.85,0 14.22,6.09 14.22,13.59s-6.37,13.58 -14.22,13.58s-14.21,-6.07 -14.21,-13.58a13.16,13.16 0 0 1 3.45,-8.78l-28.87,29l0,132.58c0,15.2 13,27.63 28.9,27.63l295.48,0c15.91,0 28.91,-12.43 28.91,-27.63l0,-367.85c-0.01,-15.19 -13.03,-27.63 -28.92,-27.63zm-284.74,392.15c-7.84,0 -14.21,-6.07 -14.21,-13.57s6.37,-13.6 14.21,-13.6s14.22,6.09 14.22,13.6s-6.39,13.57 -14.22,13.57zm0,-67.92c-7.84,0 -14.21,-6.08 -14.21,-13.58s6.35,-13.56 14.21,-13.56s14.22,6.08 14.22,13.59s-6.39,13.55 -14.22,13.55z" id="svg_10"/>
   <rect class="cls-8" x="543.98451" y="451.91401" width="209.5" height="13.3" id="svg_11"/>
   <rect class="cls-8" x="543.98451" y="507.34401" width="209.5" height="13.3" id="svg_12"/>
   <rect class="cls-8" x="543.98451" y="566.88712" width="209.5" height="13.3" id="svg_13"/>
   <rect class="cls-8" x="543.98451" y="622.31712" width="209.5" height="13.3" id="svg_14"/>
   <rect class="cls-8" x="626.99451" y="341.06401" width="126.49" height="13.3" id="svg_15"/>
   <rect class="cls-8" x="626.99451" y="396.49401" width="126.49" height="13.3" id="svg_16"/>
   <path class="cls-9" d="m481.45451,504.84401l101.18,-101.52a28.7,28.7 0 0 0 8.37,-20.26l-139.66,28.76l0,123.23l28.87,-29a14.51,14.51 0 0 1 1.24,-1.21zm9.52,-71.5c7.85,0 14.22,6.08 14.22,13.59s-6.37,13.58 -14.22,13.58s-14.21,-6.08 -14.21,-13.58s6.37,-13.59 14.23,-13.59l-0.02,0z" id="svg_17"/>
   <path class="cls-3" d="m589.99451,271.15401l-139.65,139.66l110.9,0a28.76,28.76 0 0 0 28.75,-28.75l0,-110.91z" id="svg_18"/>
  </g>
 </g>
</svg>