<svg width="800" height="600" xmlns="http://www.w3.org/2000/svg">
 <defs>
  <style>.cls-1{fill:#28382B;}.cls-2{fill:#e9eef1;}.cls-3{fill:#fd8a29;}.cls-4{fill:#ccd1d3;}.cls-5{fill:#f2f7f9;}.cls-6{fill:#dbe0e2;}.cls-7{fill:#f1ab90;}.cls-8{fill:#dadfe2;}.cls-9{fill:#dde2e5;}.cls-10{fill:#ec772a;}.cls-11{fill:#c8601a;}.cls-12{fill:#d8671d;}.cls-13{fill:#e77b2a;}</style>
 </defs>
 <title>rock-paper-scissors-flat-icons</title>
 <g>
  <title>Layer 1</title>
  <g stroke="null" id="Background">
   <rect stroke="null" x="-18.44448" y="-31.55612" id="svg_1" height="1058.88665" width="1119.99041" class="cls-1"/>
  </g>
  <g id="svg_33">
   <ellipse stroke="null" id="svg_9" ry="47.24" rx="227.99" cy="397.06089" cx="2702.23341" class="cls-7"/>
   <path stroke="null" id="svg_10" d="m2849.97341,-231.53911l-184.74,0l-139.65,139.67l139.65,-28.76a28.7,28.7 0 0 1 -8.37,20.26l-101.17,101.52a14.47,14.47 0 0 1 9.54,-3.6c7.85,0 14.22,6.09 14.22,13.59s-6.37,13.58 -14.22,13.58s-14.21,-6.07 -14.21,-13.58a13.16,13.16 0 0 1 3.45,-8.78l-28.87,29l0,132.58c0,15.2 13,27.63 28.9,27.63l295.48,0c15.91,0 28.91,-12.43 28.91,-27.63l0,-367.85c-0.01,-15.19 -13.03,-27.63 -28.92,-27.63zm-284.74,392.15c-7.84,0 -14.21,-6.07 -14.21,-13.57s6.37,-13.6 14.21,-13.6s14.22,6.09 14.22,13.6s-6.39,13.57 -14.22,13.57zm0,-67.92c-7.84,0 -14.21,-6.08 -14.21,-13.58s6.35,-13.56 14.21,-13.56s14.22,6.08 14.22,13.59s-6.39,13.55 -14.22,13.55z" class="cls-5"/>
   <rect stroke="null" id="svg_11" height="13.3" width="209.5" y="-50.77911" x="2619.22341" class="cls-8"/>
   <rect stroke="null" id="svg_12" height="13.3" width="209.5" y="4.65089" x="2619.22341" class="cls-8"/>
   <rect stroke="null" id="svg_13" height="13.3" width="209.5" y="60.07089" x="2619.22341" class="cls-8"/>
   <rect stroke="null" id="svg_14" height="13.3" width="209.5" y="115.50089" x="2619.22341" class="cls-8"/>
   <rect stroke="null" id="svg_15" height="13.3" width="126.49" y="-161.62911" x="2702.23341" class="cls-8"/>
   <rect stroke="null" id="svg_16" height="13.3" width="126.49" y="-106.19911" x="2702.23341" class="cls-8"/>
   <path stroke="null" id="svg_17" d="m2555.69341,1.15089l101.18,-101.52a28.7,28.7 0 0 0 8.37,-20.26l-139.66,28.76l0,123.23l28.87,-29a14.51,14.51 0 0 1 1.24,-1.21zm9.52,-71.5c7.85,0 14.22,6.08 14.22,13.59s-6.37,13.58 -14.22,13.58s-14.21,-6.08 -14.21,-13.58s6.37,-13.59 14.23,-13.59l-0.02,0z" class="cls-9"/>
   <path stroke="null" id="svg_18" d="m2665.23341,-231.53911l-139.65,139.66l110.9,0a28.76,28.76 0 0 0 28.75,-28.75l0,-110.91z" class="cls-3"/>
  </g>
  <g id="svg_34">
   <g stroke="null" id="scissor">
    <path stroke="null" id="svg_2" d="m2779.42853,767.86373c-4.93,13.61 49.44,-47.64 35.34,-40.34l-241.1,-281.28a108.16,108.16 0 0 0 16.27,132.14l189.49,189.48z" class="cls-2"/>
    <path stroke="null" id="svg_3" d="m2769.41853,795.83373a73.54,73.54 0 1 1 73.54,73.5a73.64,73.64 0 0 1 -73.54,-73.52m32.56,0a41,41 0 1 0 41,-41a41,41 0 0 0 -41,41" class="cls-3"/>
    <polygon stroke="null" id="svg_4" points="2754.3084716796875,657.0037155151367 2713.698486328125,702.1337203979492 2752.428466796875,740.8837203979492 2792.1485595703125,701.1537399291992 2754.3084716796875,657.0037155151367 " class="cls-4"/>
    <path stroke="null" id="svg_5" d="m2876.03853,578.38373a108.16,108.16 0 0 0 16.27,-132.14l-241.08,281.28c-14.1,-7.3 40.25,53.95 35.34,40.34l189.47,-189.48z" class="cls-5"/>
    <path stroke="null" id="svg_6" d="m2623.00853,722.33373a73.61,73.61 0 0 0 -73.51,73.56c0,1.39 0,2.74 0.12,4.09a73.53,73.53 0 0 0 146.83,0c0.08,-1.35 0.12,-2.7 0.12,-4.09a73.63,73.63 0 0 0 -73.56,-73.56zm40.78,77.57l0,0.17a41,41 0 0 1 -81.55,0l0,-0.17c-0.13,-1.31 -0.21,-2.66 -0.21,-4a41,41 0 0 1 82,0c-0.04,1.29 -0.12,2.64 -0.24,3.95l0,0.05z" class="cls-3"/>
    <path stroke="null" id="svg_7" d="m2732.98853,656.25373a18.33,18.33 0 1 1 -18.33,18.33a18.32,18.32 0 0 1 18.33,-18.33" class="cls-6"/>
   </g>
   <ellipse stroke="null" id="svg_8" ry="47.24" rx="227.99" cy="1074.84373" cx="2732.98853" class="cls-7"/>
  </g>
  <g id="svg_24">
   <path transform="rotate(-0.1334996074438095 404.8695678710744,293.0706176757821) " id="svg_19" d="m254.20575,409.31625c7.53225,22.75567 21.09031,38.6804 37.72905,38.6804l222.24663,0c21.75314,0 37.66126,-23.89063 44.44029,-54.61219c7.11045,-31.85652 4.51935,-70.9176 -11.23812,-97.83949c-1.34074,-2.46731 -2.88485,-4.74429 -4.4365,-7.04946l-75.15681,-103.11954c-22.36326,-30.53122 -49.37391,-47.2314 -77.20558,-47.2314c-15.15489,0 -30.00096,4.93462 -43.91303,14.21877a104.91674,98.19197 0 0 0 -16.39018,13.27414c-18.34857,17.82104 -34.42992,43.98865 -46.39114,76.41618l-28.75814,77.95296c-10.71839,29.00854 -9.68648,63.52271 -0.92647,89.30964l0,-0.00001z" class="cls-3" stroke="null"/>
   <path transform="rotate(-0.1334996074438095 297.03497314448657,300.4383239746011) " id="svg_20" d="m254.22262,409.56753c7.53225,22.75567 21.09031,38.6804 37.72905,38.6804l24.94682,0l-9.17428,-147.90478l37.14153,-79.54614l1.82281,-68.16831a104.91674,98.19197 0 0 0 -16.39018,13.27414c-18.34857,17.82104 -34.42992,43.98865 -46.39114,76.41618l-28.75814,77.93886c-10.71839,29.00854 -9.68648,63.52271 -0.92647,89.30964l0,0.00001z" class="cls-10" stroke="null"/>
   <polygon transform="rotate(-0.1334996074438095 437.46578979491693,409.5790100097745) " id="svg_21" points="402.5010986328125,371.2228698730469 466.69842529296875,373.9792175292969 514.4453735351562,447.9351501464844 360.4862060546875,447.9351501464844 402.5010986328125,371.2228698730469 " class="cls-11" stroke="null"/>
   <path transform="rotate(-0.1334996074438095 328.3989868164237,374.2191467285232) " id="svg_22" d="m360.43366,448.17506l-68.30999,0c-16.57095,0 -30.1968,-15.94588 -37.72152,-38.6804l53.47899,-109.23143l94.5147,71.19957l-41.96218,76.71225l0,0.00001z" class="cls-12" stroke="null"/>
   <path transform="rotate(-0.1334996074438095 514.6044311523674,371.52239990233835) " id="svg_23" d="m466.63264,373.79937s66.62277,-64.67177 80.94911,-78.50987c15.77254,26.9219 18.34857,65.98297 11.23812,97.83949l0,0c-6.77903,30.70746 -22.67208,54.62629 -44.44029,54.62629" class="cls-13" stroke="null"/>
  </g>
 </g>
</svg>