<svg width="800" height="600" xmlns="http://www.w3.org/2000/svg">
 <defs>
  <style>.cls-1{fill:#28382B;}.cls-2{fill:#e9eef1;}.cls-3{fill:#fd8a29;}.cls-4{fill:#ccd1d3;}.cls-5{fill:#f2f7f9;}.cls-6{fill:#dbe0e2;}.cls-7{fill:#f1ab90;}.cls-8{fill:#dadfe2;}.cls-9{fill:#dde2e5;}.cls-10{fill:#ec772a;}.cls-11{fill:#c8601a;}.cls-12{fill:#d8671d;}.cls-13{fill:#e77b2a;}</style>
 </defs>
 <title>rock-paper-scissors-flat-icons</title>
 <g>
  <title>Layer 1</title>
  <g id="Background">
   <rect x="-701.66669" y="-246.66666" id="svg_1" height="1350" width="2400" class="cls-1"/>
  </g>
  <g id="scissor">
   <path id="svg_2" d="m437.86663,392.86334c-4.93,13.61 49.44,-47.64 35.34,-40.34l-241.1,-281.28a108.16,108.16 0 0 0 16.27,132.14l189.49,189.48z" class="cls-2"/>
   <path id="svg_3" d="m427.85663,420.83334a73.54,73.54 0 1 1 73.54,73.5a73.64,73.64 0 0 1 -73.54,-73.52m32.56,0a41,41 0 1 0 41,-41a41,41 0 0 0 -41,41" class="cls-3"/>
   <polygon id="svg_4" points="412.74652099609375,282.0033416748047 372.13653564453125,327.1333465576172 410.86651611328125,365.8833465576172 450.58660888671875,326.1533660888672 412.74652099609375,282.0033416748047 " class="cls-4"/>
   <path id="svg_5" d="m534.47663,203.38334a108.16,108.16 0 0 0 16.27,-132.14l-241.08,281.28c-14.1,-7.3 40.25,53.95 35.34,40.34l189.47,-189.48z" class="cls-5"/>
   <path id="svg_6" d="m281.44663,347.33334a73.61,73.61 0 0 0 -73.51,73.56c0,1.39 0,2.74 0.12,4.09a73.53,73.53 0 0 0 146.83,0c0.08,-1.35 0.12,-2.7 0.12,-4.09a73.63,73.63 0 0 0 -73.56,-73.56zm40.78,77.57l0,0.17a41,41 0 0 1 -81.55,0l0,-0.17c-0.13,-1.31 -0.21,-2.66 -0.21,-4a41,41 0 0 1 82,0c-0.04,1.29 -0.12,2.64 -0.24,3.95l0,0.05z" class="cls-3"/>
   <path id="svg_7" d="m391.42663,281.25334a18.33,18.33 0 1 1 -18.33,18.33a18.32,18.32 0 0 1 18.33,-18.33" class="cls-6"/>
  </g>
  <ellipse id="svg_8" ry="47.24" rx="227.99" cy="1021.51" cx="1889.76" class="cls-7"/>
 </g>
</svg>